<?xml version="1.0" encoding="UTF-8" standalone="no"?>
<!-- Created with EazyDraw for Mac ( http://www.eazydraw.com/ ) -->

<svg
   xmlns:dc="http://purl.org/dc/elements/1.1/"
   xmlns:cc="http://creativecommons.org/ns#"
   xmlns:rdf="http://www.w3.org/1999/02/22-rdf-syntax-ns#"
   xmlns:svg="http://www.w3.org/2000/svg"
   xmlns="http://www.w3.org/2000/svg"
   xmlns:sodipodi="http://sodipodi.sourceforge.net/DTD/sodipodi-0.dtd"
   xmlns:inkscape="http://www.inkscape.org/namespaces/inkscape"
   version="1.1"
   width="104.99915"
   height="25.632999"
   viewBox="0 0 104.99915 25.632999"
   preserveAspectRatio="none"
   id="svg2"
   inkscape:version="0.91 r13725"
   sodipodi:docname="jasperreports.svg">
  <sodipodi:namedview
     pagecolor="#ffffff"
     bordercolor="#666666"
     borderopacity="1"
     objecttolerance="10"
     gridtolerance="10"
     guidetolerance="10"
     inkscape:pageopacity="0"
     inkscape:pageshadow="2"
     inkscape:window-width="1440"
     inkscape:window-height="851"
     id="namedview30"
     showgrid="false"
     fit-margin-top="0"
     fit-margin-left="0"
     fit-margin-right="0"
     fit-margin-bottom="0"
     inkscape:zoom="0.87529412"
     inkscape:cx="5.6831698"
     inkscape:cy="13.4665"
     inkscape:window-x="0"
     inkscape:window-y="1"
     inkscape:window-maximized="1"
     inkscape:current-layer="svg2" />
  <defs
     id="defs_8587DA1B" />
  <metadata
     id="metadata7">
    <rdf:RDF>
      <cc:Work
         rdf:about="">
        <dc:format>image/svg+xml</dc:format>
        <dc:type
           rdf:resource="http://purl.org/dc/dcmitype/StillImage" />
        <dc:title></dc:title>
      </cc:Work>
    </rdf:RDF>
  </metadata>
  <g
     id="layer_Paper"
     style="fill:#000000;fill-opacity:1;fill-rule:nonzero;stroke:#000000;stroke-width:1;stroke-linecap:square;stroke-linejoin:miter;stroke-miterlimit:10;stroke-opacity:1"
     transform="matrix(0.25304047,0,0,0.25304047,-1.2652024,-1.2652024)">
    <rect
       style="fill:#ffffff;stroke:none"
       id="D24316EA"
       x="5"
       y="5.9749999"
       width="100"
       height="100" />
    <polygon
       style="fill:#990000;stroke:none"
       id="754316EA"
       points="5,85.243 5,105.975 105,105.975 105,65.404 83.062,43.465 62.553,63.974 56.896,58.317 68.562,46.653 56.076,34.167 " />
    <polygon
       style="fill:#cc0000;stroke:none"
       id="874316EA"
       points="61.724,28.52 56.076,22.871 56.085,22.863 74.218,40.995 83.101,32.113 88.758,37.769 88.718,37.809 105,54.09 105,5.975 5,5.975 5,73.93 56.067,22.863 " />
    <g
       id="C84316EA">
      <path
         style="stroke:none"
         id="FA4316EA"
         d="m 135.975,84.67 c 1.408,-0.256 3.456,-0.448 5.344,-0.448 2.976,0 4.928,0.576 6.24,1.76 1.056,0.96 1.696,2.432 1.696,4.128 0,2.815 -1.792,4.704 -4.032,5.472 l 0,0.096 c 1.632,0.576 2.624,2.112 3.136,4.352 0.704,3.008 1.216,5.088 1.664,5.92 l -2.88,0 c -0.352,-0.64 -0.832,-2.464 -1.408,-5.151 -0.64,-2.976 -1.824,-4.096 -4.352,-4.192 l -2.624,0 0,9.344 -2.784,0 0,-21.281 z m 2.784,9.823 2.848,0 c 2.976,0 4.864,-1.632 4.864,-4.096 0,-2.784 -2.016,-4 -4.96,-4 -1.344,0 -2.271,0.096 -2.751,0.225 l 0,7.871 z"
         inkscape:connector-curvature="0" />
    </g>
    <g
       id="3D4316EA">
      <path
         style="stroke:none"
         id="0F4316EA"
         d="m 395.903,102.557 c 1.247,0.8 3.039,1.408 4.959,1.408 2.848,0 4.512,-1.504 4.512,-3.681 0,-1.983 -1.152,-3.167 -4.064,-4.255 -3.52,-1.28 -5.695,-3.136 -5.695,-6.144 0,-3.36 2.784,-5.855 6.977,-5.855 2.176,0 3.807,0.512 4.734,1.056 l -0.768,2.271 c -0.672,-0.416 -2.111,-1.023 -4.063,-1.023 -2.944,0 -4.063,1.76 -4.063,3.231 0,2.016 1.312,3.008 4.287,4.16 3.648,1.407 5.473,3.167 5.473,6.335 0,3.328 -2.433,6.239 -7.52,6.239 -2.08,0 -4.353,-0.64 -5.504,-1.407 l 0.735,-2.335 z"
         inkscape:connector-curvature="0" />
    </g>
    <g
       id="605316EA">
      <polyline
         style="stroke:none"
         id="D15316EA"
         points="358.57,86.75 352.01,86.75 352.01,84.382 367.977,84.382 367.977,86.75 361.385,86.75 361.385,105.948 358.57,105.948 358.57,86.75 358.57,86.75" />
    </g>
    <g
       id="335316EA">
      <path
         style="stroke:none"
         id="B45316EA"
         d="m 311.383,84.67 c 1.408,-0.256 3.456,-0.448 5.344,-0.448 2.976,0 4.928,0.576 6.24,1.76 1.056,0.96 1.696,2.432 1.696,4.128 0,2.815 -1.792,4.704 -4.032,5.472 l 0,0.096 c 1.632,0.576 2.624,2.112 3.136,4.352 0.704,3.008 1.216,5.088 1.664,5.92 l -2.88,0 c -0.352,-0.64 -0.832,-2.464 -1.408,-5.151 -0.64,-2.976 -1.824,-4.096 -4.352,-4.192 l -2.624,0 0,9.344 -2.784,0 0,-21.281 z m 2.784,9.823 2.848,0 c 2.976,0 4.864,-1.632 4.864,-4.096 0,-2.784 -2.016,-4 -4.96,-4 -1.344,0 -2.271,0.096 -2.751,0.225 l 0,7.871 z"
         inkscape:connector-curvature="0" />
    </g>
    <g
       id="165316EA">
      <path
         style="stroke:none"
         id="975316EA"
         d="m 281.921,94.942 c 0,7.391 -4.512,11.358 -10.015,11.358 -5.728,0 -9.695,-4.447 -9.695,-10.975 0,-6.848 4.224,-11.327 9.983,-11.327 5.92,0 9.727,4.512 9.727,10.944 z m -16.766,0.319 c 0,4.64 2.496,8.768 6.912,8.768 4.416,0 6.912,-4.063 6.912,-8.959 0,-4.32 -2.24,-8.8 -6.88,-8.8 -4.64,0 -6.944,4.288 -6.944,8.991 z"
         inkscape:connector-curvature="0" />
    </g>
    <g
       id="E85316EA">
      <path
         style="stroke:none"
         id="6A5316EA"
         d="m 220.623,84.638 c 1.344,-0.224 3.104,-0.416 5.344,-0.416 2.752,0 4.768,0.64 6.048,1.792 1.152,1.024 1.888,2.592 1.888,4.512 0,1.952 -0.576,3.487 -1.664,4.607 -1.504,1.568 -3.872,2.368 -6.591,2.368 -0.832,0 -1.6,-0.032 -2.24,-0.192 l 0,8.64 -2.784,0 0,-21.311 z m 2.784,10.399 c 0.608,0.16 1.375,0.224 2.304,0.224 3.36,0 5.408,-1.664 5.408,-4.575 0,-2.88 -2.048,-4.256 -5.088,-4.256 -1.216,0 -2.144,0.096 -2.624,0.224 l 0,8.383 z"
         inkscape:connector-curvature="0" />
    </g>
    <g
       id="CB5316EA">
      <polyline
         style="stroke:none"
         id="3D5316EA"
         points="190.17,95.837 181.819,95.837 181.819,103.612 191.162,103.612 191.162,105.948 179.003,105.948 179.003,84.382 190.682,84.382 190.682,86.718 181.819,86.718 181.819,93.533 190.17,93.533 190.17,95.837 190.17,95.837" />
    </g>
    <g
       id="8E5316EA">
      <path
         style="stroke:none"
         id="FF5316EA"
         d="m 135.509,6.055 11.807,0 0,41.949 c 0,17.854 -8.64,23.806 -21.407,23.806 -3.359,0 -7.391,-0.576 -9.983,-1.535 l 1.44,-9.504 c 1.919,0.672 4.511,1.152 7.295,1.152 6.719,0 10.847,-3.072 10.847,-14.304 l 0,-41.564 z"
         inkscape:connector-curvature="0" />
      <path
         style="stroke:none"
         id="616316EA"
         d="m 173.236,52.419 -5.567,18.335 -12.191,0 20.735,-64.699 15.071,0 21.022,64.699 -12.767,0 -5.855,-18.335 -20.448,0 z m 18.527,-8.927 -5.088,-15.936 c -1.248,-3.936 -2.304,-8.351 -3.264,-12.095 l -0.192,0 c -0.96,3.744 -2.016,8.256 -3.072,12.095 l -4.992,15.936 16.608,0 z"
         inkscape:connector-curvature="0" />
      <path
         style="stroke:none"
         id="D26316EA"
         d="m 221.14,57.891 c 3.744,2.208 9.599,4.128 15.647,4.128 7.487,0 11.711,-3.552 11.711,-8.831 0,-4.896 -3.264,-7.775 -11.423,-10.752 C 226.324,38.597 219.508,32.933 219.508,23.622 219.508,12.967 228.34,5 242.45,5 c 7.007,0 12.095,1.535 15.455,3.264 l -2.783,9.503 c -2.4,-1.248 -6.912,-3.071 -12.959,-3.071 -7.487,0 -10.655,3.936 -10.655,7.775 0,4.991 3.744,7.295 12.383,10.655 11.231,4.224 16.606,9.887 16.606,19.198 0,10.463 -7.871,19.486 -24.478,19.486 -6.912,0 -14.015,-1.92 -17.567,-4.128 l 2.688,-9.791 z"
         inkscape:connector-curvature="0" />
      <path
         style="stroke:none"
         id="546316EA"
         d="m 271.155,6.919 c 4.319,-0.769 10.176,-1.345 18.047,-1.345 8.64,0 14.879,1.824 19.007,5.28 3.84,3.168 6.335,8.255 6.335,14.303 0,6.144 -1.92,11.135 -5.472,14.591 -4.799,4.704 -12.095,7.008 -20.446,7.008 -2.208,0 -4.128,-0.097 -5.76,-0.48 l 0,24.479 -11.711,0 0,-63.836 z m 11.711,30.046 c 1.536,0.479 3.36,0.575 5.76,0.575 8.831,0 14.207,-4.415 14.207,-11.903 0,-7.199 -4.991,-10.942 -13.151,-10.942 -3.264,0 -5.567,0.288 -6.815,0.575 l 0,21.695 z"
         inkscape:connector-curvature="0" />
      <polyline
         style="stroke:none"
         id="C56316EA"
         points="361.008,42.052 336.625,42.052 336.625,61.059 363.887,61.059 363.887,70.754 324.818,70.754 324.818,6.055 362.447,6.055 362.447,15.75 336.625,15.75 336.625,32.453 361.008,32.453 361.008,42.052 361.008,42.052" />
      <path
         style="stroke:none"
         id="376316EA"
         d="m 374.258,7.015 c 4.512,-0.864 11.039,-1.44 17.855,-1.44 9.311,0 15.551,1.536 19.967,5.184 3.551,2.977 5.566,7.488 5.566,13.056 0,8.352 -5.662,14.015 -11.807,16.127 l 0,0.288 c 4.703,1.728 7.488,6.239 9.023,12.479 2.111,8.063 3.84,15.551 5.088,18.047 l -12.096,0 c -0.959,-1.92 -2.592,-7.199 -4.318,-15.263 -1.92,-8.447 -4.896,-11.136 -11.615,-11.327 l -5.953,0 0,26.59 -11.71,0 0,-63.741 z m 11.711,28.51 7.008,0 c 7.969,0 12.863,-4.224 12.863,-10.655 0,-7.008 -4.895,-10.367 -12.574,-10.367 -3.744,0 -6.145,0.288 -7.297,0.576 l 0,20.446 z"
         inkscape:connector-curvature="0" />
    </g>
  </g>
</svg>
